<svg xmlns="http://www.w3.org/2000/svg" width="794.122" height="505.357" viewBox="0 0 794.122 505.357">
  <g id="undraw_Portfolio_update_re_jqnp" transform="translate(0)">
    <path id="Path_1" data-name="Path 1" d="M247.458,701.2c-12.251-1.008-23.067-9.871-29.218-20.514-2.063-3.569-3.476-8.251-1.14-11.647a6.409,6.409,0,0,1,11.315,1.471,62.043,62.043,0,0,1-.965-12.641c.094-3.586.772-7.641,3.754-9.635,3.459-2.313,8.445-.477,10.962,2.838s3.2,7.627,3.8,11.744a10.83,10.83,0,0,1,12.039-13.657c5.067.765,9.036,5.152,10.585,10.036s1.065,10.181.068,15.207c-1.169,5.894-3.066,11.741-6.481,16.684s-8.488,8.929-14.374,10.138Z" transform="translate(-202.939 -197.316)" fill="#f2f2f2"/>
    <path id="Path_2" data-name="Path 2" d="M997.061,303.327a106.034,106.034,0,0,1-71,100.08c-.659.23-1.329.46-2,.67V296.367H785.291c.04-.67.09-1.34.15-2h138.62v-21.04a5,5,0,0,0-5-5H790.981c.23-.67.47-1.34.73-2a106.01,106.01,0,0,1,205.35,37Z" transform="translate(-202.939 -197.316)" fill="#f2f2f2"/>
    <path id="Path_3" data-name="Path 3" d="M919.061,266.327h-487a7.008,7.008,0,0,0-7,7v330a7.008,7.008,0,0,0,7,7h487a7.008,7.008,0,0,0,7-7v-330a7.008,7.008,0,0,0-7-7Zm5,337a5,5,0,0,1-5,5h-487a5,5,0,0,1-5-5v-330a5,5,0,0,1,5-5h487a5,5,0,0,1,5,5Z" transform="translate(-202.939 -197.316)" fill="#3f3d56"/>
    <rect id="Rectangle_1" data-name="Rectangle 1" width="499" height="2" transform="translate(223.122 97.051)" fill="#3f3d56"/>
    <ellipse id="Ellipse_1" data-name="Ellipse 1" cx="6" cy="6" rx="6" ry="6" transform="translate(234.122 78.011)" fill="#3f3d56"/>
    <ellipse id="Ellipse_2" data-name="Ellipse 2" cx="6" cy="6" rx="6" ry="6" transform="translate(251.372 78.011)" fill="#3f3d56"/>
    <ellipse id="Ellipse_3" data-name="Ellipse 3" cx="6" cy="6" rx="6" ry="6" transform="translate(268.622 78.011)" fill="#3f3d56"/>
    <path id="Path_4" data-name="Path 4" d="M562.061,335.327h-88a7.008,7.008,0,0,0-7,7v88a7.008,7.008,0,0,0,7,7h88a7.008,7.008,0,0,0,7-7v-88A7.008,7.008,0,0,0,562.061,335.327Zm5,95a5,5,0,0,1-5,5h-88a5,5,0,0,1-5-5v-88a5,5,0,0,1,5-5h88a5,5,0,0,1,5,5Z" transform="translate(-202.939 -197.316)" fill="#3f3d56"/>
    <path id="Path_5" data-name="Path 5" d="M720.061,335.827h-88a6.513,6.513,0,0,0-6.5,6.5v88a6.513,6.513,0,0,0,6.5,6.5h88a6.513,6.513,0,0,0,6.5-6.5v-88a6.513,6.513,0,0,0-6.5-6.5Z" transform="translate(-202.939 -197.316)" fill="#457081"/>
    <path id="Path_6" data-name="Path 6" d="M878.061,335.827h-88a6.513,6.513,0,0,0-6.5,6.5v88a6.513,6.513,0,0,0,6.5,6.5h88a6.512,6.512,0,0,0,6.5-6.5v-88a6.513,6.513,0,0,0-6.5-6.5Z" transform="translate(-202.939 -197.316)" fill="#e6e6e6"/>
    <path id="Path_7" data-name="Path 7" d="M562.061,467.827h-88a6.513,6.513,0,0,0-6.5,6.5v88a6.513,6.513,0,0,0,6.5,6.5h88a6.513,6.513,0,0,0,6.5-6.5v-88A6.512,6.512,0,0,0,562.061,467.827Z" transform="translate(-202.939 -197.316)" fill="#e6e6e6"/>
    <path id="Path_8" data-name="Path 8" d="M720.061,467.827h-88a6.513,6.513,0,0,0-6.5,6.5v88a6.513,6.513,0,0,0,6.5,6.5h88a6.513,6.513,0,0,0,6.5-6.5v-88A6.513,6.513,0,0,0,720.061,467.827Z" transform="translate(-202.939 -197.316)" fill="#457081"/>
    <path id="Path_9" data-name="Path 9" d="M878.061,467.827h-88a6.513,6.513,0,0,0-6.5,6.5v88a6.513,6.513,0,0,0,6.5,6.5h88a6.513,6.513,0,0,0,6.5-6.5v-88a6.513,6.513,0,0,0-6.5-6.5Z" transform="translate(-202.939 -197.316)" fill="#e6e6e6"/>
    <path id="Path_10" data-name="Path 10" d="M540.561,482.327h-88a6.507,6.507,0,0,1-6.5-6.5v-88a6.507,6.507,0,0,1,6.5-6.5h88a6.507,6.507,0,0,1,6.5,6.5v88a6.507,6.507,0,0,1-6.5,6.5Z" transform="translate(-202.939 -197.316)" fill="#457081"/>
    <path id="Path_11" data-name="Path 11" d="M202.746,492.088l11.72-3.6-8.3-46.918-17.3,5.308Z" transform="translate(0 0.011)" fill="#a0616a"/>
    <path id="Path_12" data-name="Path 12" d="M0,0H38.531V14.887H14.887A14.887,14.887,0,0,1,0,0Z" transform="translate(240.409 492.452) rotate(162.939)" fill="#2f2e41"/>
    <path id="Path_13" data-name="Path 13" d="M102.748,492.358h12.26l5.832-47.288H102.746Z" transform="translate(0 0.011)" fill="#a0616a"/>
    <path id="Path_14" data-name="Path 14" d="M0,0H38.531V14.887H14.887A14.887,14.887,0,0,1,0,0Z" transform="translate(138.649 503.753) rotate(179.997)" fill="#2f2e41"/>
    <path id="Path_15" data-name="Path 15" d="M304.807,552.608a9.162,9.162,0,0,1,.318-14.046l9.505-119.695,19.331,4.83L318.484,540.456a9.212,9.212,0,0,1-13.677,12.152Z" transform="translate(-202.939 -197.316)" fill="#a0616a"/>
    <ellipse id="Ellipse_4" data-name="Ellipse 4" cx="24.561" cy="24.561" rx="24.561" ry="24.561" transform="translate(116.018 126.006)" fill="#a0616a"/>
    <path id="Path_16" data-name="Path 16" d="M322.162,415.186c-5.542-7.608-5.713-18.087.257-25.364,3.9-4.749,10.413-8.549,21.293-8.549,29,0,40,23,40,23s12,22,5,42-7,22-7,22l-46-4S343.471,444.441,322.162,415.186Z" transform="translate(-202.939 -197.316)" fill="#ccc"/>
    <path id="Path_17" data-name="Path 17" d="M307.977,435.1l9.91-32.421a15.5,15.5,0,0,1,21.93-9.245h0a15.53,15.53,0,0,1,7.088,20.01l-12.6,28.691Z" transform="translate(-202.939 -197.316)" fill="#ccc"/>
    <path id="Path_18" data-name="Path 18" d="M380.711,463.272l39,202-21,6-51-133-23,136-22,3s-9.65-179.945,33-213Z" transform="translate(-202.939 -197.316)" fill="#2f2e41"/>
    <path id="Path_19" data-name="Path 19" d="M436.842,453.805a10.528,10.528,0,0,0-.963,1.349l-49.535,2.4-9.538-29.12-16.562,7.871,15.588,43.371L437.094,467.7a10.5,10.5,0,1,0-.252-13.893Z" transform="translate(-202.939 -197.316)" fill="#a0616a"/>
    <path id="Path_20" data-name="Path 20" d="M353.314,407.177a15.5,15.5,0,0,1,16.362-17.282h0a15.529,15.529,0,0,1,14.535,15.472V436.7l-26.936,4.145Z" transform="translate(-202.939 -197.316)" fill="#ccc"/>
    <path id="Path_21" data-name="Path 21" d="M348.92,372.666c-3.686-.016-6.53-3.9-6.365-7.58s2.639-6.923,5.619-9.093,6.475-3.492,9.8-5.087,6.617-3.586,8.669-6.648a14.716,14.716,0,0,0,1.023-13.5,21.669,21.669,0,0,0-9.333-10.224,28.378,28.378,0,0,0-37.607,8.25l-4.208,11.458c-4.288,5.156-4.968,12.813-2.332,18.98s8.248,10.806,14.581,13.011a35.794,35.794,0,0,0,19.841.595" transform="translate(-202.939 -197.316)" fill="#2f2e41"/>
    <path id="Path_22" data-name="Path 22" d="M326.473,334.506c-1.809-2.9-4.944-4.743-8.186-5.825a25.724,25.724,0,0,0-33.832,23c-.344,6.314,1.634,12.489,2.8,18.705s1.393,13.082-2.034,18.4c-2.611,4.048-6.964,6.6-11.261,8.773-3.581,1.814-7.455,3.516-11.453,3.154s-8.016-3.528-7.91-7.541a32.054,32.054,0,0,0-2.682,9.08c-.281,3.156.5,6.561,2.776,8.762,3.313,3.2,8.563,2.965,13.116,2.274,9.857-1.494,19.838-4.3,27.625-10.52s12.955-16.475,10.9-26.231c-.857-4.075-2.87-7.8-4.5-11.63s-2.9-8.027-2.15-12.124a14.735,14.735,0,0,1,7.493-9.982,19.6,19.6,0,0,1,12.523-1.9c2.8.459,6.294,1.172,7.954-1.127a4.508,4.508,0,0,0-.094-4.809,13.247,13.247,0,0,0-3.593-3.56" transform="translate(-202.939 -197.316)" fill="#2f2e41"/>
    <path id="Path_23" data-name="Path 23" d="M511.424,702.673H204.13a1.191,1.191,0,1,1,0-2.381H511.424a1.191,1.191,0,0,1,0,2.381Z" transform="translate(-202.939 -197.316)" fill="#3f3d56"/>
  </g>
</svg>
